<svg xmlns="http://www.w3.org/2000/svg" width="1024" height="1024" viewBox="0 0 1024 1024" role="img" aria-labelledby="title desc">
  <title id="title">B2.4 Warm Hand-Pressed M Wax Seal Logo</title>
  <desc id="desc">A symmetrical terracotta wax seal logo with a centered classical Roman serif M monogram and beaded inner ring.</desc>
  <defs>
    <radialGradient id="waxFill" cx="50%" cy="42%" r="62%">
      <stop offset="0%" stop-color="#D27A5F"/>
      <stop offset="58%" stop-color="#B85B40"/>
      <stop offset="100%" stop-color="#8F3928"/>
    </radialGradient>
    <linearGradient id="creamFill" x1="18%" y1="10%" x2="82%" y2="92%">
      <stop offset="0%" stop-color="#FFF4E6"/>
      <stop offset="100%" stop-color="#F4DEC8"/>
    </linearGradient>
    <filter id="softEmboss" x="-15%" y="-15%" width="130%" height="130%">
      <feDropShadow dx="0" dy="7" stdDeviation="6" flood-color="#5E2119" flood-opacity="0.24"/>
    </filter>
  </defs>

  <g id="logo" transform="translate(0 0)">
    <!-- Perfectly centered, rotationally symmetric wax edge -->
    <path d="M 904.00 512.00 L 909.35 515.47 L 914.16 519.02 L 918.02 522.63 L 920.61 526.27 L 921.80 529.89 L 921.59 533.47 L 920.19 536.97 L 917.88 540.38 L 915.03 543.72 L 912.00 547.00 L 909.08 550.23 L 906.48 553.46 L 904.25 556.69 L 902.36 559.93 L 900.65 563.17 L 898.90 566.38 L 896.93 569.53 L 894.58 572.60 L 891.80 575.56 L 888.66 578.42 L 885.36 581.20 L 882.20 583.96 L 879.52 586.77 L 877.67 589.73 L 876.95 592.91 L 877.52 596.39 L 879.40 600.21 L 882.44 604.36 L 886.32 608.81 L 890.64 613.46 L 894.91 618.19 L 898.64 622.87 L 901.43 627.36 L 903.00 631.54 L 903.20 635.35 L 902.08 638.75 L 899.82 641.76 L 896.71 644.46 L 893.09 646.95 L 889.31 649.33 L 885.66 651.70 L 882.30 654.15 L 879.32 656.69 L 876.65 659.33 L 874.16 662.01 L 871.65 664.66 L 868.93 667.20 L 865.86 669.55 L 862.41 671.69 L 858.64 673.64 L 854.73 675.47 L 850.96 677.32 L 847.64 679.35 L 845.10 681.72 L 843.58 684.61 L 843.23 688.12 L 844.05 692.29 L 845.91 697.09 L 848.51 702.39 L 851.48 708.00 L 854.38 713.68 L 856.77 719.16 L 858.31 724.22 L 858.74 728.66 L 857.95 732.39 L 855.99 735.39 L 853.02 737.72 L 849.31 739.52 L 845.18 740.99 L 840.91 742.31 L 836.77 743.65 L 832.90 745.14 L 829.36 746.83 L 826.10 748.69 L 822.99 750.63 L 819.88 752.54 L 816.60 754.29 L 813.03 755.77 L 809.14 756.94 L 804.99 757.85 L 800.74 758.61 L 796.62 759.42 L 792.89 760.51 L 789.82 762.15 L 787.60 764.54 L 786.36 767.84 L 786.08 772.09 L 786.63 777.20 L 787.77 783.00 L 789.19 789.19 L 790.51 795.42 L 791.41 801.34 L 791.58 806.62 L 790.84 811.02 L 789.12 814.42 L 786.45 816.81 L 782.98 818.29 L 778.93 819.07 L 774.56 819.42 L 770.10 819.59 L 765.74 819.81 L 761.62 820.25 L 757.76 820.97 L 754.14 821.92 L 750.63 822.99 L 747.13 824.03 L 743.51 824.87 L 739.68 825.37 L 735.62 825.50 L 731.38 825.30 L 727.08 824.94 L 722.89 824.65 L 719.00 824.75 L 715.61 825.53 L 712.85 827.27 L 710.79 830.13 L 709.42 834.16 L 708.63 839.25 L 708.23 845.14 L 708.00 851.48 L 707.67 857.84 L 707.00 863.79 L 705.80 868.94 L 703.95 873.00 L 701.40 875.84 L 698.21 877.45 L 694.47 877.99 L 690.36 877.69 L 686.05 876.90 L 681.69 875.91 L 677.43 875.00 L 673.33 874.36 L 669.42 874.05 L 665.67 874.03 L 662.01 874.16 L 658.36 874.26 L 654.65 874.13 L 650.81 873.62 L 646.86 872.70 L 642.81 871.41 L 638.75 869.94 L 634.78 868.58 L 631.00 867.67 L 627.52 867.55 L 624.41 868.51 L 621.68 870.75 L 619.31 874.28 L 617.23 878.99 L 615.32 884.58 L 613.46 890.64 L 611.49 896.70 L 609.31 902.28 L 606.82 906.94 L 603.97 910.38 L 600.78 912.46 L 597.28 913.19 L 593.53 912.74 L 589.63 911.40 L 585.67 909.51 L 581.72 907.43 L 577.84 905.45 L 574.05 903.77 L 570.35 902.46 L 566.74 901.47 L 563.17 900.65 L 559.62 899.79 L 556.06 898.71 L 552.49 897.23 L 548.91 895.31 L 545.33 893.02 L 541.79 890.55 L 538.31 888.21 L 534.90 886.35 L 531.57 885.33 L 528.31 885.46 L 525.09 886.91 L 521.89 889.71 L 518.66 893.72 L 515.37 898.63 L 512.00 904.00 L 508.53 909.35 L 504.98 914.16 L 501.37 918.02 L 497.73 920.61 L 494.11 921.80 L 490.53 921.59 L 487.03 920.19 L 483.62 917.88 L 480.28 915.03 L 477.00 912.00 L 473.77 909.08 L 470.54 906.48 L 467.31 904.25 L 464.07 902.36 L 460.83 900.65 L 457.62 898.90 L 454.47 896.93 L 451.40 894.58 L 448.44 891.80 L 445.58 888.66 L 442.80 885.36 L 440.04 882.20 L 437.23 879.52 L 434.27 877.67 L 431.09 876.95 L 427.61 877.52 L 423.79 879.40 L 419.64 882.44 L 415.19 886.32 L 410.54 890.64 L 405.81 894.91 L 401.13 898.64 L 396.64 901.43 L 392.46 903.00 L 388.65 903.20 L 385.25 902.08 L 382.24 899.82 L 379.54 896.71 L 377.05 893.09 L 374.67 889.31 L 372.30 885.66 L 369.85 882.30 L 367.31 879.32 L 364.67 876.65 L 361.99 874.16 L 359.34 871.65 L 356.80 868.93 L 354.45 865.86 L 352.31 862.41 L 350.36 858.64 L 348.53 854.73 L 346.68 850.96 L 344.65 847.64 L 342.28 845.10 L 339.39 843.58 L 335.88 843.23 L 331.71 844.05 L 326.91 845.91 L 321.61 848.51 L 316.00 851.48 L 310.32 854.38 L 304.84 856.77 L 299.78 858.31 L 295.34 858.74 L 291.61 857.95 L 288.61 855.99 L 286.28 853.02 L 284.48 849.31 L 283.01 845.18 L 281.69 840.91 L 280.35 836.77 L 278.86 832.90 L 277.17 829.36 L 275.31 826.10 L 273.37 822.99 L 271.46 819.88 L 269.71 816.60 L 268.23 813.03 L 267.06 809.14 L 266.15 804.99 L 265.39 800.74 L 264.58 796.62 L 263.49 792.89 L 261.85 789.82 L 259.46 787.60 L 256.16 786.36 L 251.91 786.08 L 246.80 786.63 L 241.00 787.77 L 234.81 789.19 L 228.58 790.51 L 222.66 791.41 L 217.38 791.58 L 212.98 790.84 L 209.58 789.12 L 207.19 786.45 L 205.71 782.98 L 204.93 778.93 L 204.58 774.56 L 204.41 770.10 L 204.19 765.74 L 203.75 761.62 L 203.03 757.76 L 202.08 754.14 L 201.01 750.63 L 199.97 747.13 L 199.13 743.51 L 198.63 739.68 L 198.50 735.62 L 198.70 731.38 L 199.06 727.08 L 199.35 722.89 L 199.25 719.00 L 198.47 715.61 L 196.73 712.85 L 193.87 710.79 L 189.84 709.42 L 184.75 708.63 L 178.86 708.23 L 172.52 708.00 L 166.16 707.67 L 160.21 707.00 L 155.06 705.80 L 151.00 703.95 L 148.16 701.40 L 146.55 698.21 L 146.01 694.47 L 146.31 690.36 L 147.10 686.05 L 148.09 681.69 L 149.00 677.43 L 149.64 673.33 L 149.95 669.42 L 149.97 665.67 L 149.84 662.01 L 149.74 658.36 L 149.87 654.65 L 150.38 650.81 L 151.30 646.86 L 152.59 642.81 L 154.06 638.75 L 155.42 634.78 L 156.33 631.00 L 156.45 627.52 L 155.49 624.41 L 153.25 621.68 L 149.72 619.31 L 145.01 617.23 L 139.42 615.32 L 133.36 613.46 L 127.30 611.49 L 121.72 609.31 L 117.06 606.82 L 113.62 603.97 L 111.54 600.78 L 110.81 597.28 L 111.26 593.53 L 112.60 589.63 L 114.49 585.67 L 116.57 581.72 L 118.55 577.84 L 120.23 574.05 L 121.54 570.35 L 122.53 566.74 L 123.35 563.17 L 124.21 559.62 L 125.29 556.06 L 126.77 552.49 L 128.69 548.91 L 130.98 545.33 L 133.45 541.79 L 135.79 538.31 L 137.65 534.90 L 138.67 531.57 L 138.54 528.31 L 137.09 525.09 L 134.29 521.89 L 130.28 518.66 L 125.37 515.37 L 120.00 512.00 L 114.65 508.53 L 109.84 504.98 L 105.98 501.37 L 103.39 497.73 L 102.20 494.11 L 102.41 490.53 L 103.81 487.03 L 106.12 483.62 L 108.97 480.28 L 112.00 477.00 L 114.92 473.77 L 117.52 470.54 L 119.75 467.31 L 121.64 464.07 L 123.35 460.83 L 125.10 457.62 L 127.07 454.47 L 129.42 451.40 L 132.20 448.44 L 135.34 445.58 L 138.64 442.80 L 141.80 440.04 L 144.48 437.23 L 146.33 434.27 L 147.05 431.09 L 146.48 427.61 L 144.60 423.79 L 141.56 419.64 L 137.68 415.19 L 133.36 410.54 L 129.09 405.81 L 125.36 401.13 L 122.57 396.64 L 121.00 392.46 L 120.80 388.65 L 121.92 385.25 L 124.18 382.24 L 127.29 379.54 L 130.91 377.05 L 134.69 374.67 L 138.34 372.30 L 141.70 369.85 L 144.68 367.31 L 147.35 364.67 L 149.84 361.99 L 152.35 359.34 L 155.07 356.80 L 158.14 354.45 L 161.59 352.31 L 165.36 350.36 L 169.27 348.53 L 173.04 346.68 L 176.36 344.65 L 178.90 342.28 L 180.42 339.39 L 180.77 335.88 L 179.95 331.71 L 178.09 326.91 L 175.49 321.61 L 172.52 316.00 L 169.62 310.32 L 167.23 304.84 L 165.69 299.78 L 165.26 295.34 L 166.05 291.61 L 168.01 288.61 L 170.98 286.28 L 174.69 284.48 L 178.82 283.01 L 183.09 281.69 L 187.23 280.35 L 191.10 278.86 L 194.64 277.17 L 197.90 275.31 L 201.01 273.37 L 204.12 271.46 L 207.40 269.71 L 210.97 268.23 L 214.86 267.06 L 219.01 266.15 L 223.26 265.39 L 227.38 264.58 L 231.11 263.49 L 234.18 261.85 L 236.40 259.46 L 237.64 256.16 L 237.92 251.91 L 237.37 246.80 L 236.23 241.00 L 234.81 234.81 L 233.49 228.58 L 232.59 222.66 L 232.42 217.38 L 233.16 212.98 L 234.88 209.58 L 237.55 207.19 L 241.02 205.71 L 245.07 204.93 L 249.44 204.58 L 253.90 204.41 L 258.26 204.19 L 262.38 203.75 L 266.24 203.03 L 269.86 202.08 L 273.37 201.01 L 276.87 199.97 L 280.49 199.13 L 284.32 198.63 L 288.38 198.50 L 292.62 198.70 L 296.92 199.06 L 301.11 199.35 L 305.00 199.25 L 308.39 198.47 L 311.15 196.73 L 313.21 193.87 L 314.58 189.84 L 315.37 184.75 L 315.77 178.86 L 316.00 172.52 L 316.33 166.16 L 317.00 160.21 L 318.20 155.06 L 320.05 151.00 L 322.60 148.16 L 325.79 146.55 L 329.53 146.01 L 333.64 146.31 L 337.95 147.10 L 342.31 148.09 L 346.57 149.00 L 350.67 149.64 L 354.58 149.95 L 358.33 149.97 L 361.99 149.84 L 365.64 149.74 L 369.35 149.87 L 373.19 150.38 L 377.14 151.30 L 381.19 152.59 L 385.25 154.06 L 389.22 155.42 L 393.00 156.33 L 396.48 156.45 L 399.59 155.49 L 402.32 153.25 L 404.69 149.72 L 406.77 145.01 L 408.68 139.42 L 410.54 133.36 L 412.51 127.30 L 414.69 121.72 L 417.18 117.06 L 420.03 113.62 L 423.22 111.54 L 426.72 110.81 L 430.47 111.26 L 434.37 112.60 L 438.33 114.49 L 442.28 116.57 L 446.16 118.55 L 449.95 120.23 L 453.65 121.54 L 457.26 122.53 L 460.83 123.35 L 464.38 124.21 L 467.94 125.29 L 471.51 126.77 L 475.09 128.69 L 478.67 130.98 L 482.21 133.45 L 485.69 135.79 L 489.10 137.65 L 492.43 138.67 L 495.69 138.54 L 498.91 137.09 L 502.11 134.29 L 505.34 130.28 L 508.63 125.37 L 512.00 120.00 L 515.47 114.65 L 519.02 109.84 L 522.63 105.98 L 526.27 103.39 L 529.89 102.20 L 533.47 102.41 L 536.97 103.81 L 540.38 106.12 L 543.72 108.97 L 547.00 112.00 L 550.23 114.92 L 553.46 117.52 L 556.69 119.75 L 559.93 121.64 L 563.17 123.35 L 566.38 125.10 L 569.53 127.07 L 572.60 129.42 L 575.56 132.20 L 578.42 135.34 L 581.20 138.64 L 583.96 141.80 L 586.77 144.48 L 589.73 146.33 L 592.91 147.05 L 596.39 146.48 L 600.21 144.60 L 604.36 141.56 L 608.81 137.68 L 613.46 133.36 L 618.19 129.09 L 622.87 125.36 L 627.36 122.57 L 631.54 121.00 L 635.35 120.80 L 638.75 121.92 L 641.76 124.18 L 644.46 127.29 L 646.95 130.91 L 649.33 134.69 L 651.70 138.34 L 654.15 141.70 L 656.69 144.68 L 659.33 147.35 L 662.01 149.84 L 664.66 152.35 L 667.20 155.07 L 669.55 158.14 L 671.69 161.59 L 673.64 165.36 L 675.47 169.27 L 677.32 173.04 L 679.35 176.36 L 681.72 178.90 L 684.61 180.42 L 688.12 180.77 L 692.29 179.95 L 697.09 178.09 L 702.39 175.49 L 708.00 172.52 L 713.68 169.62 L 719.16 167.23 L 724.22 165.69 L 728.66 165.26 L 732.39 166.05 L 735.39 168.01 L 737.72 170.98 L 739.52 174.69 L 740.99 178.82 L 742.31 183.09 L 743.65 187.23 L 745.14 191.10 L 746.83 194.64 L 748.69 197.90 L 750.63 201.01 L 752.54 204.12 L 754.29 207.40 L 755.77 210.97 L 756.94 214.86 L 757.85 219.01 L 758.61 223.26 L 759.42 227.38 L 760.51 231.11 L 762.15 234.18 L 764.54 236.40 L 767.84 237.64 L 772.09 237.92 L 777.20 237.37 L 783.00 236.23 L 789.19 234.81 L 795.42 233.49 L 801.34 232.59 L 806.62 232.42 L 811.02 233.16 L 814.42 234.88 L 816.81 237.55 L 818.29 241.02 L 819.07 245.07 L 819.42 249.44 L 819.59 253.90 L 819.81 258.26 L 820.25 262.38 L 820.97 266.24 L 821.92 269.86 L 822.99 273.37 L 824.03 276.87 L 824.87 280.49 L 825.37 284.32 L 825.50 288.38 L 825.30 292.62 L 824.94 296.92 L 824.65 301.11 L 824.75 305.00 L 825.53 308.39 L 827.27 311.15 L 830.13 313.21 L 834.16 314.58 L 839.25 315.37 L 845.14 315.77 L 851.48 316.00 L 857.84 316.33 L 863.79 317.00 L 868.94 318.20 L 873.00 320.05 L 875.84 322.60 L 877.45 325.79 L 877.99 329.53 L 877.69 333.64 L 876.90 337.95 L 875.91 342.31 L 875.00 346.57 L 874.36 350.67 L 874.05 354.58 L 874.03 358.33 L 874.16 361.99 L 874.26 365.64 L 874.13 369.35 L 873.62 373.19 L 872.70 377.14 L 871.41 381.19 L 869.94 385.25 L 868.58 389.22 L 867.67 393.00 L 867.55 396.48 L 868.51 399.59 L 870.75 402.32 L 874.28 404.69 L 878.99 406.77 L 884.58 408.68 L 890.64 410.54 L 896.70 412.51 L 902.28 414.69 L 906.94 417.18 L 910.38 420.03 L 912.46 423.22 L 913.19 426.72 L 912.74 430.47 L 911.40 434.37 L 909.51 438.33 L 907.43 442.28 L 905.45 446.16 L 903.77 449.95 L 902.46 453.65 L 901.47 457.26 L 900.65 460.83 L 899.79 464.38 L 898.71 467.94 L 897.23 471.51 L 895.31 475.09 L 893.02 478.67 L 890.55 482.21 L 888.21 485.69 L 886.35 489.10 L 885.33 492.43 L 885.46 495.69 L 886.91 498.91 L 889.71 502.11 L 893.72 505.34 L 898.63 508.63 Z" fill="url(#waxFill)" filter="url(#softEmboss)"/>

    <!-- Symmetric pressed rings -->
    <circle cx="512" cy="512" r="345" fill="none" stroke="#E18A6F" stroke-width="12" opacity="0.58"/>
    <circle cx="512" cy="512" r="326" fill="none" stroke="#843222" stroke-width="12" opacity="0.72"/>
    <circle cx="512" cy="512" r="296" fill="url(#creamFill)" stroke="#9D472F" stroke-width="8"/>

    <!-- Inner beaded ring, all beads generated from one radius for exact symmetry -->
    <g id="beaded-ring">
      <circle cx="512.00" cy="262.00" r="4.8" fill="#9D472F" opacity="0.88"/>
      <circle cx="528.35" cy="262.54" r="4.8" fill="#9D472F" opacity="0.88"/>
      <circle cx="544.63" cy="264.14" r="4.8" fill="#9D472F" opacity="0.88"/>
      <circle cx="560.77" cy="266.80" r="4.8" fill="#9D472F" opacity="0.88"/>
      <circle cx="576.70" cy="270.52" r="4.8" fill="#9D472F" opacity="0.88"/>
      <circle cx="592.36" cy="275.27" r="4.8" fill="#9D472F" opacity="0.88"/>
      <circle cx="607.67" cy="281.03" r="4.8" fill="#9D472F" opacity="0.88"/>
      <circle cx="622.57" cy="287.78" r="4.8" fill="#9D472F" opacity="0.88"/>
      <circle cx="637.00" cy="295.49" r="4.8" fill="#9D472F" opacity="0.88"/>
      <circle cx="650.89" cy="304.13" r="4.8" fill="#9D472F" opacity="0.88"/>
      <circle cx="664.19" cy="313.66" r="4.8" fill="#9D472F" opacity="0.88"/>
      <circle cx="676.84" cy="324.04" r="4.8" fill="#9D472F" opacity="0.88"/>
      <circle cx="688.78" cy="335.22" r="4.8" fill="#9D472F" opacity="0.88"/>
      <circle cx="699.96" cy="347.16" r="4.8" fill="#9D472F" opacity="0.88"/>
      <circle cx="710.34" cy="359.81" r="4.8" fill="#9D472F" opacity="0.88"/>
      <circle cx="719.87" cy="373.11" r="4.8" fill="#9D472F" opacity="0.88"/>
      <circle cx="728.51" cy="387.00" r="4.8" fill="#9D472F" opacity="0.88"/>
      <circle cx="736.22" cy="401.43" r="4.8" fill="#9D472F" opacity="0.88"/>
      <circle cx="742.97" cy="416.33" r="4.8" fill="#9D472F" opacity="0.88"/>
      <circle cx="748.73" cy="431.64" r="4.8" fill="#9D472F" opacity="0.88"/>
      <circle cx="753.48" cy="447.30" r="4.8" fill="#9D472F" opacity="0.88"/>
      <circle cx="757.20" cy="463.23" r="4.8" fill="#9D472F" opacity="0.88"/>
      <circle cx="759.86" cy="479.37" r="4.8" fill="#9D472F" opacity="0.88"/>
      <circle cx="761.46" cy="495.65" r="4.8" fill="#9D472F" opacity="0.88"/>
      <circle cx="762.00" cy="512.00" r="4.8" fill="#9D472F" opacity="0.88"/>
      <circle cx="761.46" cy="528.35" r="4.8" fill="#9D472F" opacity="0.88"/>
      <circle cx="759.86" cy="544.63" r="4.8" fill="#9D472F" opacity="0.88"/>
      <circle cx="757.20" cy="560.77" r="4.8" fill="#9D472F" opacity="0.88"/>
      <circle cx="753.48" cy="576.70" r="4.8" fill="#9D472F" opacity="0.88"/>
      <circle cx="748.73" cy="592.36" r="4.8" fill="#9D472F" opacity="0.88"/>
      <circle cx="742.97" cy="607.67" r="4.8" fill="#9D472F" opacity="0.88"/>
      <circle cx="736.22" cy="622.57" r="4.8" fill="#9D472F" opacity="0.88"/>
      <circle cx="728.51" cy="637.00" r="4.8" fill="#9D472F" opacity="0.88"/>
      <circle cx="719.87" cy="650.89" r="4.8" fill="#9D472F" opacity="0.88"/>
      <circle cx="710.34" cy="664.19" r="4.8" fill="#9D472F" opacity="0.88"/>
      <circle cx="699.96" cy="676.84" r="4.8" fill="#9D472F" opacity="0.88"/>
      <circle cx="688.78" cy="688.78" r="4.8" fill="#9D472F" opacity="0.88"/>
      <circle cx="676.84" cy="699.96" r="4.8" fill="#9D472F" opacity="0.88"/>
      <circle cx="664.19" cy="710.34" r="4.8" fill="#9D472F" opacity="0.88"/>
      <circle cx="650.89" cy="719.87" r="4.8" fill="#9D472F" opacity="0.88"/>
      <circle cx="637.00" cy="728.51" r="4.8" fill="#9D472F" opacity="0.88"/>
      <circle cx="622.57" cy="736.22" r="4.8" fill="#9D472F" opacity="0.88"/>
      <circle cx="607.67" cy="742.97" r="4.8" fill="#9D472F" opacity="0.88"/>
      <circle cx="592.36" cy="748.73" r="4.8" fill="#9D472F" opacity="0.88"/>
      <circle cx="576.70" cy="753.48" r="4.8" fill="#9D472F" opacity="0.88"/>
      <circle cx="560.77" cy="757.20" r="4.8" fill="#9D472F" opacity="0.88"/>
      <circle cx="544.63" cy="759.86" r="4.8" fill="#9D472F" opacity="0.88"/>
      <circle cx="528.35" cy="761.46" r="4.8" fill="#9D472F" opacity="0.88"/>
      <circle cx="512.00" cy="762.00" r="4.8" fill="#9D472F" opacity="0.88"/>
      <circle cx="495.65" cy="761.46" r="4.8" fill="#9D472F" opacity="0.88"/>
      <circle cx="479.37" cy="759.86" r="4.8" fill="#9D472F" opacity="0.88"/>
      <circle cx="463.23" cy="757.20" r="4.8" fill="#9D472F" opacity="0.88"/>
      <circle cx="447.30" cy="753.48" r="4.8" fill="#9D472F" opacity="0.88"/>
      <circle cx="431.64" cy="748.73" r="4.8" fill="#9D472F" opacity="0.88"/>
      <circle cx="416.33" cy="742.97" r="4.8" fill="#9D472F" opacity="0.88"/>
      <circle cx="401.43" cy="736.22" r="4.8" fill="#9D472F" opacity="0.88"/>
      <circle cx="387.00" cy="728.51" r="4.8" fill="#9D472F" opacity="0.88"/>
      <circle cx="373.11" cy="719.87" r="4.8" fill="#9D472F" opacity="0.88"/>
      <circle cx="359.81" cy="710.34" r="4.8" fill="#9D472F" opacity="0.88"/>
      <circle cx="347.16" cy="699.96" r="4.8" fill="#9D472F" opacity="0.88"/>
      <circle cx="335.22" cy="688.78" r="4.8" fill="#9D472F" opacity="0.88"/>
      <circle cx="324.04" cy="676.84" r="4.8" fill="#9D472F" opacity="0.88"/>
      <circle cx="313.66" cy="664.19" r="4.8" fill="#9D472F" opacity="0.88"/>
      <circle cx="304.13" cy="650.89" r="4.8" fill="#9D472F" opacity="0.88"/>
      <circle cx="295.49" cy="637.00" r="4.8" fill="#9D472F" opacity="0.88"/>
      <circle cx="287.78" cy="622.57" r="4.8" fill="#9D472F" opacity="0.88"/>
      <circle cx="281.03" cy="607.67" r="4.8" fill="#9D472F" opacity="0.88"/>
      <circle cx="275.27" cy="592.36" r="4.8" fill="#9D472F" opacity="0.88"/>
      <circle cx="270.52" cy="576.70" r="4.8" fill="#9D472F" opacity="0.88"/>
      <circle cx="266.80" cy="560.77" r="4.8" fill="#9D472F" opacity="0.88"/>
      <circle cx="264.14" cy="544.63" r="4.8" fill="#9D472F" opacity="0.88"/>
      <circle cx="262.54" cy="528.35" r="4.8" fill="#9D472F" opacity="0.88"/>
      <circle cx="262.00" cy="512.00" r="4.8" fill="#9D472F" opacity="0.88"/>
      <circle cx="262.54" cy="495.65" r="4.8" fill="#9D472F" opacity="0.88"/>
      <circle cx="264.14" cy="479.37" r="4.8" fill="#9D472F" opacity="0.88"/>
      <circle cx="266.80" cy="463.23" r="4.8" fill="#9D472F" opacity="0.88"/>
      <circle cx="270.52" cy="447.30" r="4.8" fill="#9D472F" opacity="0.88"/>
      <circle cx="275.27" cy="431.64" r="4.8" fill="#9D472F" opacity="0.88"/>
      <circle cx="281.03" cy="416.33" r="4.8" fill="#9D472F" opacity="0.88"/>
      <circle cx="287.78" cy="401.43" r="4.8" fill="#9D472F" opacity="0.88"/>
      <circle cx="295.49" cy="387.00" r="4.8" fill="#9D472F" opacity="0.88"/>
      <circle cx="304.13" cy="373.11" r="4.8" fill="#9D472F" opacity="0.88"/>
      <circle cx="313.66" cy="359.81" r="4.8" fill="#9D472F" opacity="0.88"/>
      <circle cx="324.04" cy="347.16" r="4.8" fill="#9D472F" opacity="0.88"/>
      <circle cx="335.22" cy="335.22" r="4.8" fill="#9D472F" opacity="0.88"/>
      <circle cx="347.16" cy="324.04" r="4.8" fill="#9D472F" opacity="0.88"/>
      <circle cx="359.81" cy="313.66" r="4.8" fill="#9D472F" opacity="0.88"/>
      <circle cx="373.11" cy="304.13" r="4.8" fill="#9D472F" opacity="0.88"/>
      <circle cx="387.00" cy="295.49" r="4.8" fill="#9D472F" opacity="0.88"/>
      <circle cx="401.43" cy="287.78" r="4.8" fill="#9D472F" opacity="0.88"/>
      <circle cx="416.33" cy="281.03" r="4.8" fill="#9D472F" opacity="0.88"/>
      <circle cx="431.64" cy="275.27" r="4.8" fill="#9D472F" opacity="0.88"/>
      <circle cx="447.30" cy="270.52" r="4.8" fill="#9D472F" opacity="0.88"/>
      <circle cx="463.23" cy="266.80" r="4.8" fill="#9D472F" opacity="0.88"/>
      <circle cx="479.37" cy="264.14" r="4.8" fill="#9D472F" opacity="0.88"/>
      <circle cx="495.65" cy="262.54" r="4.8" fill="#9D472F" opacity="0.88"/>
    </g>

    <circle cx="512" cy="512" r="218" fill="none" stroke="#B85B40" stroke-width="5" opacity="0.64"/>

    <!-- Centered classical serif M, no font dependency -->
    <g id="centered-M" aria-label="Classical Roman serif M monogram">
      <!-- Outlined serif M converted to pure vector path; no font dependency. -->
      <path d="M 324.71 680.57 L 324.71 676.41 L 350.98 676.41 Q 362.62 676.41 369.06 671.01 Q 375.49 665.61 375.49 653.52 L 375.49 410.48 Q 375.49 398.45 369.84 393.05 Q 364.24 387.59 357.61 387.59 L 324.71 387.59 L 324.71 383.43 L 462.88 383.43 L 527.38 581.93 L 587.71 383.43 L 708.00 383.43 L 708.00 387.59 L 685.96 387.59 Q 680.50 387.59 675.30 392.79 Q 670.09 398.00 670.09 407.62 L 670.09 656.84 Q 670.09 676.41 690.12 676.41 L 708.00 676.41 L 708.00 680.57 L 558.20 680.57 L 558.20 676.41 L 564.44 676.41 Q 577.77 676.41 582.97 670.82 Q 588.17 665.16 588.17 651.05 L 588.17 397.22 L 502.02 680.57 L 469.12 680.57 L 379.65 405.93 L 379.65 651.44 Q 379.65 668.08 387.78 672.25 Q 395.91 676.41 410.86 676.41 L 433.36 676.41 L 433.36 680.57 L 324.71 680.57 Z" fill="#5A2515"/>
      <path d="M 324.71 680.57 L 324.71 676.41 L 350.98 676.41 Q 362.62 676.41 369.06 671.01 Q 375.49 665.61 375.49 653.52 L 375.49 410.48 Q 375.49 398.45 369.84 393.05 Q 364.24 387.59 357.61 387.59 L 324.71 387.59 L 324.71 383.43 L 462.88 383.43 L 527.38 581.93 L 587.71 383.43 L 708.00 383.43 L 708.00 387.59 L 685.96 387.59 Q 680.50 387.59 675.30 392.79 Q 670.09 398.00 670.09 407.62 L 670.09 656.84 Q 670.09 676.41 690.12 676.41 L 708.00 676.41 L 708.00 680.57 L 558.20 680.57 L 558.20 676.41 L 564.44 676.41 Q 577.77 676.41 582.97 670.82 Q 588.17 665.16 588.17 651.05 L 588.17 397.22 L 502.02 680.57 L 469.12 680.57 L 379.65 405.93 L 379.65 651.44 Q 379.65 668.08 387.78 672.25 Q 395.91 676.41 410.86 676.41 L 433.36 676.41 L 433.36 680.57 L 324.71 680.57 Z" fill="#FFFFFF" opacity="0.10" transform="translate(-3 -4)"/>
      <path d="M 324.71 680.57 L 324.71 676.41 L 350.98 676.41 Q 362.62 676.41 369.06 671.01 Q 375.49 665.61 375.49 653.52 L 375.49 410.48 Q 375.49 398.45 369.84 393.05 Q 364.24 387.59 357.61 387.59 L 324.71 387.59 L 324.71 383.43 L 462.88 383.43 L 527.38 581.93 L 587.71 383.43 L 708.00 383.43 L 708.00 387.59 L 685.96 387.59 Q 680.50 387.59 675.30 392.79 Q 670.09 398.00 670.09 407.62 L 670.09 656.84 Q 670.09 676.41 690.12 676.41 L 708.00 676.41 L 708.00 680.57 L 558.20 680.57 L 558.20 676.41 L 564.44 676.41 Q 577.77 676.41 582.97 670.82 Q 588.17 665.16 588.17 651.05 L 588.17 397.22 L 502.02 680.57 L 469.12 680.57 L 379.65 405.93 L 379.65 651.44 Q 379.65 668.08 387.78 672.25 Q 395.91 676.41 410.86 676.41 L 433.36 676.41 L 433.36 680.57 L 324.71 680.57 Z" fill="none" stroke="#7A321F" stroke-width="3" opacity="0.22"/>
    </g>
  </g>
</svg>